<?xml version="1.0" encoding="utf-8"?>
<!-- Generator: Adobe Illustrator 23.0.6, SVG Export Plug-In . SVG Version: 6.00 Build 0)  -->
<svg version="1.1" id="a843d524-97c3-496f-96e4-6ebb49b633ff"
	 xmlns="http://www.w3.org/2000/svg" xmlns:xlink="http://www.w3.org/1999/xlink" x="0px" y="0px" viewBox="0 0 1039.8 621.2"
	 style="enable-background:new 0 0 1039.8 621.2;" xml:space="preserve">
<style type="text/css">
	.st0{fill:#3F3D56;}
	.st1{fill:#2F2E41;}
	.st2{fill:#FFB8B8;}
	.st3{opacity:0.1;enable-background:new    ;}
	.st4{fill:#D0CDE1;}
	.st5{fill:#E6E8EC;}
	.st6{fill:#1898D5;}
	.st7{opacity:0.2;enable-background:new    ;}
	.st8{fill:#F2F2F2;}
	.st9{fill:#FFFFFF;}
	.st10{fill:#F1670C;}
	.st11{fill:#146484;}
</style>
<title>insert</title>
<rect y="577.7" class="st0" width="1039.8" height="2"/>
<rect x="589.6" y="77.5" class="st1" width="59.5" height="86.7"/>
<path class="st2" d="M637.6,117.5c0,0-2.2,42.8,17.5,44.5c13.8,1.2-27,39.1-27,39.1L593,152.6c0,0,26.3,2.7,9.4-27L637.6,117.5z"/>
<path class="st3" d="M593,152.6l11.1,15.4l24,33.2c0,0,20-18.6,27.3-30.2c2.7-4.4,3.6-7.7,1-8.7c0,0,0,0,0,0
	c-0.4-0.1-0.8-0.2-1.2-0.3c0,0,0,0-0.1,0c-1.2-0.1-2.3-0.4-3.4-0.8c-16.2-6-14.2-43.8-14.2-43.8l-35.1,8.1
	c11.2,19.8,3.3,25.2-3.3,26.6c-1.4,0.3-2.9,0.5-4.4,0.5C593.7,152.7,593,152.6,593,152.6z"/>
<path class="st1" d="M582.7,82.4c6.4,19,16.3,36.4,36.4,36.4s35.2-16.3,36.4-36.4c1.4-25.6-15.8-36.5-36.4-36.4
	C594.8,46.1,575.1,59.8,582.7,82.4z"/>
<path class="st2" d="M668.6,391.5l-9.4,66.1c0,0,8.1,40.5,4,68.8l-4,29.7h-18.9l-5.4-31c0,0-5.4-32.4-5.4-47.2c0,0-14.8-67.5-5.4-81
	L668.6,391.5z"/>
<path class="st2" d="M553.9,387.5l9.4,70.2c0,0-8.1,40.5-4,68.8l4,29.7h18.9l5.4-31c0,0,5.4-32.4,5.4-47.2c0,0,14.8-71.5,5.4-85
	L553.9,387.5z"/>
<path class="st1" d="M572.8,552.2c0,0-10.8-4-12.1,1.3s-4,33.7-4,33.7s-8.1,12.1-13.5,13.5s-17.5,18.9-2.7,20.2s29.7-4,29.7-6.7
	s5.4-4,8.1-4s12.1-4,10.8-8.1s-5.4-51.3-5.4-51.3L572.8,552.2z"/>
<path class="st1" d="M649.7,552.2c0,0,10.8-4,12.1,1.3s4,33.7,4,33.7s8.1,12.1,13.5,13.5s17.5,18.9,2.7,20.2s-29.7-4-29.7-6.7
	s-5.4-4-8.1-4s-12.1-4-10.8-8.1s5.4-51.3,5.4-51.3L649.7,552.2z"/>
<circle class="st2" cx="617.3" cy="105.4" r="28"/>
<path class="st2" d="M512,259.3c0,0,56.7,24.3,62.1-1.4c3.3-16,5.6-32.3,6.8-48.6c0,0,0,0,0,0c0.8-0.5,28.7-17.6,23.2-41.3
	c-1.3-5.1-3.7-9.9-7-14c0,0-0.8-0.5-2.2-1.3c-1.7-0.9-3.4-1.7-5.1-2.3c-9.5-3.6-25.4-5.7-29.1,18.5c-5.4,35.1-5.4,72.9-5.4,72.9
	s-16.2,9.5-37.8,0s-43.2-4-44.5,8.1C471.5,262,512,259.3,512,259.3z"/>
<path class="st2" d="M655.1,162.1l0.3,9l3.2,101.1l0.5,16.8l47.2,52.6c0,0,9.5,28.3,29.7,32.4s-13.5-39.1-13.5-39.1l-45.9-67.5
	l-0.1-2.3c-0.5-18.9,1.1-37.8,4.7-56.4c1.3-6.9,1.6-14,0.8-21c-1.9-15.1-14.3-21.6-21.6-24.2c-1.3-0.5-2.7-0.9-4.1-1.2c0,0,0,0,0,0
	C655.8,162.2,655.4,162.1,655.1,162.1C655.2,162.1,655.2,162.1,655.1,162.1z"/>
<path class="st4" d="M579.5,259.3v5.4c19.7,24.1,63.2,12.7,79.1,7.5c3.7-1.2,5.9-2.1,5.9-2.1c-0.8-1.7-1.3-3.5-1.3-5.4v-12.1
	c0-4-1.3-1.4-2.7-2.7s4-9.5,4-9.5c13.5-8.1,5.4-31,5.4-31l-9.4-20.2v-25.5c-1.3-0.5-2.7-0.9-4.1-1.2c0,0,0,0,0,0
	c-0.4-0.1-0.8-0.2-1.2-0.3c0,0,0,0-0.1,0c-1.2-0.1-2.3-0.4-3.4-0.8c-2.5,5.2-8,12.1-19.6,12.9c-13.8,1-26.9-13.9-33-22
	c-1.4,0.3-2.9,0.5-4.4,0.5c-1.7-0.9-3.4-1.7-5.1-2.3l6,25.2c5.3,13.3-14.2,33-14.8,33.7c0,0,0,0,0,0v14.9l1.3,16.2l1.3,4l-2.7,4
	l1.3,4l-1.3,2.7C579.5,257.9,579.5,256.6,579.5,259.3z"/>
<path class="st1" d="M661.9,268.7l4-1.3c0,0,48.6,121.5,16.2,126.9s-56.7,14.8-62.1,5.4s-2.7-43.2-2.7-43.2l-5.4-1.3
	c0,0,9.4,49.9-9.4,45.9s-71.5-10.8-71.5-16.2s48.6-122,48.6-122S599.8,275.5,661.9,268.7z"/>
<circle class="st1" cx="619.1" cy="39.3" r="14.4"/>
<path class="st1" d="M636.3,31.7c0-7.4-5.6-13.5-12.9-14.3c0.5,0,1-0.1,1.4-0.1c7.9,0,14.4,6.4,14.4,14.4S632.7,46,624.8,46
	c-0.5,0-1,0-1.4-0.1C630.7,45.2,636.3,39,636.3,31.7z"/>
<path class="st1" d="M630.6,69.3c0,0,0.3-1.7,12,2.7s18.7,36.8,12.9,55.9c-2.4,7.7-0.4,13.2,2.7,17.1c11.8,14.5,7.1,36.4-10,43.8
	c-0.5,0.2-1,0.4-1.5,0.6l-7.3,4.4c0,0,9.3-12.3,4.7-28c-4.1-13.4-4.6-27.6-1.5-41.3c0.5-2.3,1.1-4.7,1.8-7.1
	c5.9-20.5,3-18.1-17.5-38.7c0,0-11.7,8.8-22,13.2s-19,8.8-11.7,23.4s24.9,27.8,13.2,46.9s-13.2,11.7-11.7,19l0,0l1.5,7.3l-8.8-8.8
	l5.9,11.7c0,0-19,0-24.9-14.7l-2.9,2.9c0,0-11.7-20.5,10.3-39.6c0,0,7.3-4.4-2.9-19s-2.4-46.2,10.8-52S630.6,69.3,630.6,69.3z"/>
<path class="st0" d="M486.8,133.8v65.7c0,1.3-1,2.3-2.3,2.3h-1.6v342.2c0,19.7-16,35.7-35.7,35.7H233.4c-19.7,0-35.7-16-35.7-35.7
	c0,0,0,0,0,0V213.7h-1.2c-0.9,0-1.6-0.7-1.6-1.6v-37.4c0-0.9,0.7-1.6,1.6-1.6c0,0,0,0,0,0h1.2V159h-1.2c-0.9,0-1.7-0.8-1.7-1.7
	v-36.9c0-0.9,0.8-1.7,1.7-1.7h1.2V99.6h-1.2c-0.8,0-1.5-0.7-1.5-1.5c0,0,0,0,0,0V77.9c0-0.8,0.7-1.5,1.5-1.5h1.2V35.7
	c0-19.7,16-35.7,35.7-35.7h213.8c19.7,0,35.7,16,35.7,35.7v95.8h1.6C485.8,131.5,486.8,132.5,486.8,133.8z"/>
<path class="st5" d="M315.8,18.3h34.7c1.4,0,2.5,1.1,2.5,2.5v3c0,1.4-1.1,2.5-2.5,2.5h-34.7c-1.4,0-2.5-1.1-2.5-2.5v-3
	C313.3,19.4,314.4,18.3,315.8,18.3z"/>
<circle class="st5" cx="363.7" cy="22.4" r="4.6"/>
<path class="st6" d="M465.8,42.7v504.1c0,12.5-10.1,22.6-22.7,22.6H238.5c-12.5,0-22.6-10.1-22.6-22.6c0,0,0,0,0-0.1V42.7
	c0-12.5,10.1-22.6,22.6-22.6c0,0,0,0,0,0h30.6V24c0,10.3,8.3,18.6,18.6,18.6h104.1c10.3,0,18.6-8.3,18.6-18.6v-3.9h32.6
	C455.6,20.1,465.8,30.2,465.8,42.7C465.8,42.7,465.8,42.7,465.8,42.7z"/>
<rect x="225.8" y="185.4" class="st7" width="232" height="113"/>
<rect x="757.5" y="281.2" class="st8" width="232" height="113"/>
<rect x="225.8" y="356.6" class="st0" width="232" height="113"/>
<circle class="st9" cx="433.8" cy="81.6" r="20"/>
<polygon class="st0" points="442.8,81 434.5,81 434.5,72.6 433.2,72.6 433.2,81 424.8,81 424.8,82.3 433.2,82.3 433.2,90.6 
	434.5,90.6 434.5,82.3 442.8,82.3 "/>
<rect x="731.5" y="266.2" class="st0" width="232" height="113"/>
<path class="st10" d="M835.1,342c6.1,22.5,26.9,36.4,26.9,36.4s11-22.5,4.9-44.9s-26.9-36.4-26.9-36.4S829,319.6,835.1,342z"/>
<path class="st11" d="M844,337.2c16.7,16.2,18.7,41.2,18.7,41.2s-25-1.4-41.6-17.6s-18.7-41.2-18.7-41.2S827.3,321,844,337.2z"/>
<path class="st10" d="M319.2,434.2c6.1,22.5,26.9,36.4,26.9,36.4s11-22.5,4.9-44.9s-26.9-36.4-26.9-36.4S313.2,411.8,319.2,434.2z"
	/>
<path class="st11" d="M328.2,429.4c16.7,16.2,18.7,41.2,18.7,41.2s-25-1.4-41.6-17.6s-18.7-41.2-18.7-41.2S311.5,413.2,328.2,429.4z
	"/>
<path class="st10" d="M374.5,434.2c-6.1,22.5-26.9,36.4-26.9,36.4s-11-22.5-4.9-44.9s26.9-36.4,26.9-36.4S380.6,411.8,374.5,434.2z"
	/>
<path class="st11" d="M365.6,429.4c-16.7,16.2-18.7,41.2-18.7,41.2s25-1.4,41.6-17.6s18.7-41.2,18.7-41.2S382.2,413.2,365.6,429.4z"
	/>
<rect x="275.8" y="167.4" class="st0" width="232" height="113"/>
<rect x="391" y="206.1" class="st10" width="2" height="74.4"/>
<circle class="st11" cx="392" cy="207.1" r="10.5"/>
<path class="st10" d="M392,252c0,0-1.5-32.3-32.3-28.6"/>
</svg>
