<svg xmlns="http://www.w3.org/2000/svg" viewBox="0 0 30 25"><defs><style>.cls-1{fill:#f1670c;}</style></defs><title>Asset 1</title><g id="Layer_2" data-name="Layer 2"><g id="Component_1_1" data-name="Component 1 1"><path id="Rectangle_2" data-name="Rectangle 2" class="cls-1" d="M2.5,0h25A2.5,2.5,0,0,1,30,2.5h0A2.5,2.5,0,0,1,27.5,5H2.5A2.5,2.5,0,0,1,0,2.5H0A2.5,2.5,0,0,1,2.5,0Z"/><path id="Rectangle_3" data-name="Rectangle 3" class="cls-1" d="M2.5,10h25A2.5,2.5,0,0,1,30,12.5h0A2.5,2.5,0,0,1,27.5,15H2.5A2.5,2.5,0,0,1,0,12.5H0A2.5,2.5,0,0,1,2.5,10Z"/><path id="Rectangle_4" data-name="Rectangle 4" class="cls-1" d="M2.5,20h25A2.5,2.5,0,0,1,30,22.5h0A2.5,2.5,0,0,1,27.5,25H2.5A2.5,2.5,0,0,1,0,22.5H0A2.5,2.5,0,0,1,2.5,20Z"/></g></g></svg>