<svg xmlns="http://www.w3.org/2000/svg" viewBox="0 0 25.48 20.05"><defs><style>.cls-1{fill:#f1670c;}</style></defs><title>Asset 2</title><g id="Layer_2" data-name="Layer 2"><g id="Layer_2-2" data-name="Layer 2"><path id="Rectangle_3" data-name="Rectangle 3" class="cls-1" d="M4.26.5l20,15.05a2.5,2.5,0,0,1,.49,3.5h0a2.5,2.5,0,0,1-3.5.49l-20-15A2.5,2.5,0,0,1,.76,1h0A2.49,2.49,0,0,1,4.26.5Z"/><path id="Rectangle_4" data-name="Rectangle 4" class="cls-1" d="M1.07,15.14,21.55.81A2.49,2.49,0,0,1,25,1.42h0a2.5,2.5,0,0,1-.62,3.48L3.93,19.24a2.5,2.5,0,0,1-3.48-.61h0A2.52,2.52,0,0,1,1.07,15.14Z"/></g></g></svg>