<svg id="housecom_1" data-name="housecom 1" xmlns="http://www.w3.org/2000/svg" viewBox="0 0 257.12 249.04"><defs><style>.cls-1{fill:#146484;}.cls-2{fill:#1898d5;}.cls-3,.cls-5,.cls-6{fill:none;}.cls-3,.cls-4{stroke:#000;}.cls-3,.cls-4,.cls-5{stroke-linecap:round;stroke-width:10px;}.cls-3,.cls-4,.cls-5,.cls-6{stroke-miterlimit:10;}.cls-4{fill:#fff;}.cls-5{stroke:#1898d5;}.cls-6{stroke:#f1670c;stroke-width:6px;}</style></defs><title>logo_housecom</title><path class="cls-1" d="M3.5,211.42H10v14.4a12.43,12.43,0,0,1,9.73-4.15c7,0,12.47,4.61,12.47,13.37v18.49H25.75V236c0-5.75-3.13-8.71-7.86-8.71S10,230.26,10,236v17.52H3.5Z" transform="translate(-3.5 -5)"/><path class="cls-1" d="M48.33,254c-8.93,0-15.7-6.37-15.7-16.21s7-16.16,16-16.16,16,6.31,16,16.16S57.32,254,48.33,254Zm0-5.63c4.84,0,9.62-3.47,9.62-10.58S53.34,227.3,48.5,227.3s-9.27,3.41-9.27,10.53S43.44,248.41,48.33,248.41Z" transform="translate(-3.5 -5)"/><path class="cls-1" d="M93.74,253.53H87.25v-3.75A11.67,11.67,0,0,1,78,254c-7.34,0-12.92-4.61-12.92-13.37V222.18h6.43v17.47c0,5.74,3.13,8.7,7.85,8.7s7.91-3,7.91-8.7V222.18h6.49Z" transform="translate(-3.5 -5)"/><path class="cls-1" d="M108,254c-7.51,0-12.8-4.43-13.08-10.12h6.71c.23,2.56,2.67,4.66,6.26,4.66,3.75,0,5.74-1.59,5.74-3.75,0-6.15-18.2-2.62-18.2-14.12,0-5,4.66-9,12.06-9,7.11,0,11.78,3.81,12.12,10.07h-6.49c-.22-2.73-2.33-4.61-5.86-4.61s-5.29,1.42-5.29,3.53c0,6.31,17.7,2.79,18,14.11C120,250.06,115.36,254,108,254Z" transform="translate(-3.5 -5)"/><path class="cls-1" d="M134.76,254c-9,0-15.65-6.37-15.65-16.21s6.38-16.16,15.65-16.16c8.94,0,15.25,6.2,15.25,15.42a20,20,0,0,1-.23,3.18h-24a8.62,8.62,0,0,0,8.93,8.31,7.6,7.6,0,0,0,7.4-4.38h7C147.39,249.66,142.44,254,134.76,254Zm-8.88-19h17.36c-.11-4.84-3.93-7.91-8.76-7.91C130.1,227.13,126.57,230.09,125.88,235Z" transform="translate(-3.5 -5)"/><path class="cls-2" d="M163.89,221.67c7.68,0,12.69,3.81,14.46,10.41h-7c-1.08-3-3.59-5-7.46-5-5.23,0-8.7,3.87-8.7,10.7s3.47,10.75,8.7,10.75c3.87,0,6.26-1.71,7.46-5h7c-1.77,6.15-6.78,10.41-14.46,10.41-9,0-15.36-6.37-15.36-16.21S154.9,221.67,163.89,221.67Z" transform="translate(-3.5 -5)"/><path class="cls-2" d="M192.74,254c-8.93,0-15.7-6.37-15.7-16.21s7.05-16.16,16-16.16,16,6.31,16,16.16S201.73,254,192.74,254Zm0-5.63c4.84,0,9.62-3.47,9.62-10.58s-4.61-10.53-9.45-10.53-9.27,3.41-9.27,10.53S187.85,248.41,192.74,248.41Z" transform="translate(-3.5 -5)"/><path class="cls-2" d="M254.19,236c0-5.75-3.13-8.71-7.85-8.71s-7.91,3-7.91,8.71v17.52H232V236c0-5.75-3.13-8.71-7.85-8.71s-7.91,3-7.91,8.71v17.52h-6.49V222.18h6.49v3.58a11.93,11.93,0,0,1,9.27-4.09c5,0,9.11,2.1,11.27,6.2,1.93-3.81,6.37-6.2,10.92-6.2,7.34,0,12.92,4.61,12.92,13.37v18.49h-6.43Z" transform="translate(-3.5 -5)"/><g id="House_copy_2" data-name="House copy 2"><path class="cls-3" d="M182,81l.09,69a8,8,0,0,1-8,8h-39.9" transform="translate(-3.5 -5)"/><path class="cls-4" d="M103,158H89.91a8,8,0,0,1-8-8L82,77" transform="translate(-3.5 -5)"/><path class="cls-3" d="M66.09,90.24l60.62-51.73a8,8,0,0,1,10.51.08L197.91,92" transform="translate(-3.5 -5)"/><path class="cls-3" d="M132,158a17,17,0,0,1-17-17,16.64,16.64,0,0,1,4-11" transform="translate(-3.5 -5)"/><path class="cls-3" d="M144,129.26" transform="translate(-3.5 -5)"/><path class="cls-3" d="M144,129l0-42.13V81" transform="translate(-3.5 -5)"/><path class="cls-3" d="M119,81v48" transform="translate(-3.5 -5)"/><path class="cls-3" d="M119,80.5a12.5,12.5,0,0,1,25,0" transform="translate(-3.5 -5)"/></g><g id="Rings_copy_2" data-name="Rings copy 2"><circle class="cls-5" cx="128.5" cy="101" r="96"/><circle class="cls-6" cx="128.5" cy="101" r="83.5"/></g></svg>