<?xml version="1.0" encoding="utf-8"?>
<!-- Generator: Adobe Illustrator 23.0.6, SVG Export Plug-In . SVG Version: 6.00 Build 0)  -->
<svg version="1.1" id="a07b0c17-3700-4c07-9cd3-d5e614437a2a"
	 xmlns="http://www.w3.org/2000/svg" xmlns:xlink="http://www.w3.org/1999/xlink" x="0px" y="0px" viewBox="0 0 938.7 806.9"
	 style="enable-background:new 0 0 938.7 806.9;" xml:space="preserve">
<style type="text/css">
	.st0{fill:#F1670C;}
	.st1{fill:#E6E6E6;}
	.st2{fill:#F2F2F2;}
	.st3{fill:#1898D5;}
	.st4{fill:#3F3D56;}
	.st5{fill:#2F2E41;}
	.st6{fill:#FFB9B9;}
	.st7{fill:#D0CDE1;}
	.st8{opacity:0.1;enable-background:new    ;}
	.st9{fill:#146484;}
</style>
<title>absorbed in</title>
<circle class="st0" cx="33.2" cy="54.4" r="33"/>
<polygon class="st1" points="200.7,204.4 200.7,191.4 150.7,191.4 150.7,204.4 140.7,204.4 140.7,21.4 33.7,21.4 33.7,328.4 
	121.7,328.4 140.7,328.4 228.7,328.4 228.7,204.4 "/>
<path class="st2" d="M571.6,171c0,0-0.1,0.1-0.2,0.2l0-0.2l0,0.2c-2.5,2.5-30.7,30.2-41.6,58.4c-3.6-4-6.2-6.5-6.2-6.5s0,0-0.1,0.1
	l0-0.1l0,0.1c-2.1,2-30.1,29.7-30.1,51.6c0,21.2,11.7,29.5,26.8,30.6l-1.1,20.9h3.1l0.3-20.8c0.4,0,0.8,0,1.2,0
	c11.1,0,20.8-3.5,26.1-12.6c5.3,2.1,10.9,3.3,16.6,3.7l-1.7,31.9h4.7l0.5-31.7c0.6,0,1.2,0,1.8,0c25.5,0,46.1-12.1,46.1-46.8
	S571.6,171,571.6,171z"/>
<path class="st2" d="M461.7,192.7v-18.3h-56v18.3h-26v-72.3h-25v-28h-56v28h-26v113.5c-3.8-4.7-7.8-9.2-12.1-13.5c0,0,0,0-0.1,0.1
	l0-0.1l0,0.1c-2.1,2-30.1,29.7-30.1,51.6c0,21.2,11.7,29.5,26.8,30.6l-1.1,20.9h3.1l0.3-20.8c0.4,0,0.8,0,1.2,0
	c4.1,0.1,8.2-0.5,12.1-1.7v27.3h214V192.7H461.7z"/>
<path class="st2" d="M892.6,172.3c0,0-0.1,0.1-0.2,0.2l0-0.2l0,0.2c-2.6,2.5-32.7,32.2-42.7,61.4v-14.5l-96-145l-96,145v109h192
	v-56.4c6.1,17.2,20.4,24.6,37.6,25.8l-1.7,31.9h4.7l0.5-31.7c0.6,0,1.2,0,1.8,0c25.5,0,46.1-12.1,46.1-46.8S892.6,172.3,892.6,172.3
	z"/>
<ellipse class="st2" cx="152.7" cy="356.1" rx="126.5" ry="11.7"/>
<ellipse class="st2" cx="854.2" cy="503.8" rx="56.4" ry="5.2"/>
<ellipse class="st2" cx="250.2" cy="412.8" rx="56.4" ry="5.2"/>
<path class="st3" d="M878.2,482.9c0,14.6-8.7,19.7-19.4,19.7c-0.2,0-0.5,0-0.7,0c-0.5,0-1,0-1.5-0.1c-9.7-0.7-17.1-6-17.1-19.6
	c0-14,17.9-31.7,19.3-33.1l0,0c0.1-0.1,0.1-0.1,0.1-0.1S878.2,468.3,878.2,482.9z"/>
<path class="st4" d="M858.2,500.3l7.1-9.9l-7.1,11l0,1.1c-0.5,0-1,0-1.5-0.1l0.8-14.6l0-0.1l0,0l0.1-1.4l-7.1-11l7.1,10l0,0.3
	l0.6-11l-6.1-11.4l6.2,9.4l0.6-22.9l0-0.1v0.1l-0.1,18l6.1-7.1l-6.1,8.7l-0.2,9.9l5.7-9.5l-5.7,10.9l-0.1,5.5l8.2-13.2l-8.3,15.1
	L858.2,500.3z"/>
<ellipse class="st2" cx="105.2" cy="683.9" rx="105.2" ry="9.7"/>
<path class="st3" d="M150,644.9c0,27.2-16.2,36.7-36.1,36.7c-0.5,0-0.9,0-1.4,0c-0.9,0-1.8-0.1-2.7-0.1c-18-1.3-32-11.3-32-36.6
	c0-26.2,33.5-59.2,36-61.7l0,0c0.1-0.1,0.1-0.1,0.1-0.1S150,617.7,150,644.9z"/>
<path class="st4" d="M112.6,677.5l13.2-18.5l-13.2,20.5l0,2.1c-0.9,0-1.8-0.1-2.7-0.1l1.4-27.2l0-0.2l0,0l0.1-2.6l-13.3-20.5
	l13.3,18.6l0,0.5l1.1-20.6l-11.4-21.2l11.5,17.6l1.1-42.6l0-0.1v0.1l-0.2,33.6l11.3-13.3l-11.4,16.2l-0.3,18.4l10.6-17.7l-10.6,20.4
	l-0.2,10.2l15.3-24.6L113,654.7L112.6,677.5z"/>
<path class="st3" d="M296.2,226.3c0,57.4-34.1,77.5-76.2,77.5s-76.2-20.1-76.2-77.5S220,95.8,220,95.8S296.2,168.9,296.2,226.3z"/>
<polygon class="st4" points="217.2,295 218,247 250.5,187.5 218.1,239.4 218.5,217.8 240.9,174.8 218.6,212.1 218.6,212.1 
	219.2,173.2 243.2,139 219.3,167.1 219.7,95.8 217.2,190.2 217.4,186.3 193,149 217,193.8 214.8,237.2 214.7,236 186.6,196.7 
	214.6,240.1 214.3,245.5 214.3,245.6 214.3,246.1 208.5,356.2 216.2,356.2 217.1,299.3 245.1,256.1 "/>
<path class="st3" d="M162.5,226.3c0,57.4-34.1,77.5-76.2,77.5S10,283.8,10,226.3S86.3,95.8,86.3,95.8S162.5,168.9,162.5,226.3z"/>
<polygon class="st4" points="83.5,295 84.3,247 116.8,187.5 84.4,239.4 84.8,217.8 107.2,174.8 84.8,212.1 84.8,212.1 85.5,173.2 
	109.5,139 85.6,167.1 86,95.8 83.5,190.2 83.7,186.3 59.3,149 83.3,193.8 81,237.2 81,236 52.9,196.7 80.9,240.1 80.6,245.5 
	80.5,245.6 80.6,246.1 74.8,356.2 82.5,356.2 83.4,299.3 111.4,256.1 "/>
<path class="st2" d="M265.2,176.4c0,77.7-46.2,104.8-103.1,104.8S59,254.1,59,176.4S162.1,0,162.1,0S265.2,98.8,265.2,176.4z"/>
<polygon class="st4" points="158.4,269.3 159.4,204.3 203.4,123.9 159.6,194.1 160.1,164.9 190.4,106.8 160.2,157.2 160.2,157.2 
	161.1,104.6 193.5,58.3 161.2,96.4 161.7,0 158.4,127.6 158.6,122.3 125.7,71.8 158.1,132.4 155,191.1 155,189.6 116.9,136.4 
	154.8,195.1 154.5,202.4 154.4,202.5 154.4,203.1 146.6,352 157,352 158.3,275.1 196.1,216.6 "/>
<path class="st4" d="M263.2,401.4c0,1.5-0.2,3-0.7,4.4c-0.7,2-1.9,3.8-3.5,5.3c-1.7,1.5-3.7,2.6-5.9,3c-0.9,0.2-1.9,0.3-2.8,0.3
	c-2.4,0-4.7-0.6-6.7-1.9c-1.9-1.1-3.4-2.7-4.5-4.6c-3.6-6.2-1.4-14.2,4.8-17.8c6.2-3.6,14.2-1.4,17.8,4.8
	C262.6,396.9,263.2,399.1,263.2,401.4L263.2,401.4z"/>
<polygon class="st2" points="240.4,392.9 241.6,392.7 243.8,395.6 242.4,399 238.8,399.5 237.7,398 "/>
<polygon class="st2" points="247.7,406.7 244.1,407.2 241.9,404.2 243.3,400.9 246.9,400.4 249.1,403.3 "/>
<path class="st2" d="M244.4,410.4l-0.9,2.1c-1.9-1.1-3.4-2.7-4.5-4.6l3.2-0.4L244.4,410.4z"/>
<polygon class="st2" points="251.9,396.7 248.2,397.1 246,394.2 247.4,390.8 251.1,390.4 253.3,393.3 "/>
<polygon class="st2" points="257.2,404.3 253.6,404.8 251.3,401.9 252.8,398.5 256.4,398 258.6,401 "/>
<path class="st2" d="M253.9,412.2l-0.8,1.9c-0.9,0.2-1.9,0.3-2.8,0.3c-1,0-1.9-0.1-2.9-0.3l-0.8-1l1.4-3.4l3.6-0.5L253.9,412.2z"/>
<path class="st2" d="M261.8,395.5l-3.5,0.4l-2.2-2.9l1.1-2.6C259.1,391.7,260.7,393.4,261.8,395.5z"/>
<path class="st2" d="M262.5,405.8c-0.7,2-1.9,3.8-3.5,5.3l-1.1-1.5l1.4-3.4L262.5,405.8z"/>
<ellipse class="st2" cx="546.7" cy="792.7" rx="243" ry="14.2"/>
<path class="st1" d="M427.4,751.8l-51.3,46c-23-10.1-38.2-27.2-46-51.3l51.3-46C381.7,730.7,397.3,747.5,427.4,751.8z"/>
<rect x="335.9" y="735.9" transform="matrix(0.7604 -0.6494 0.6494 0.7604 -392.2974 409.3854)" class="st4" width="45.5" height="1"/>
<rect x="340.3" y="742.3" transform="matrix(0.7425 -0.6699 0.6699 0.7425 -404.1808 434.3639)" class="st4" width="44.9" height="1"/>
<path class="st2" d="M452.6,584.8l-68.5,7.2c-12.7-21.6-15-44.5-7.2-68.5l68.5-7.2C427.9,541,430.7,563.7,452.6,584.8z"/>
<rect x="383.2" y="531.6" transform="matrix(0.9967 -8.091706e-02 8.091706e-02 0.9967 -41.723 34.5948)" class="st4" width="45.5" height="1"/>
<rect x="383.1" y="539.2" transform="matrix(0.9941 -0.108 0.108 0.9941 -55.9255 46.9616)" class="st4" width="44.9" height="1"/>
<path class="st1" d="M390,439.6l-45.8-51.5c10.2-22.9,27.4-38.1,51.5-45.8l45.8,51.5C411.2,394,394.3,409.6,390,439.6z"/>
<rect x="405.1" y="348.2" transform="matrix(0.763 -0.6464 0.6464 0.763 -143.6782 350.0919)" class="st4" width="1" height="45.5"/>
<rect x="398.7" y="352.6" transform="matrix(0.7452 -0.6669 0.6669 0.7452 -148.4165 361.7805)" class="st4" width="1" height="44.9"/>
<rect x="424.2" y="200.4" transform="matrix(0.866 -0.5 0.5 0.866 -73.0067 261.3844)" class="st4" width="54" height="133"/>
<rect x="409.6" y="234.8" transform="matrix(0.8578 -0.5139 0.5139 0.8578 -59.6084 255.0965)" class="st0" width="43.4" height="1"/>
<rect x="415.5" y="243.1" transform="matrix(0.8578 -0.5139 0.5139 0.8578 -63.0151 259.3146)" class="st0" width="43.4" height="1"/>
<rect x="419.5" y="250.1" transform="matrix(0.8578 -0.5139 0.5139 0.8578 -66.0439 262.3654)" class="st0" width="43.4" height="1"/>
<rect x="425.5" y="259.1" transform="matrix(0.8578 -0.5139 0.5139 0.8578 -69.8162 266.7284)" class="st0" width="43.4" height="1"/>
<rect x="434.5" y="272.1" transform="matrix(0.8578 -0.5139 0.5139 0.8578 -75.2178 273.2018)" class="st0" width="43.4" height="1"/>
<path class="st5" d="M611,341.8c0,0,25.7-12.4,44.1-7.8L611,215.2V203l62.4,148.4l0,0c15.6,29.4,35.3,96.4,1.7,101.8
	c-38.1,6.1-106.8,29-106.8,29L553,349.4L611,341.8z"/>
<path class="st6" d="M460.8,302.1c0,0-41.2-51.9-51.9-33.6s47.9,49.1,47.9,49.1L460.8,302.1z"/>
<path class="st7" d="M474.5,303.6l-16.8-9.2c0,0-10.7,27.5-10.7,32s16.8,6.1,16.8,6.1L474.5,303.6z"/>
<ellipse transform="matrix(0.1735 -0.9848 0.9848 0.1735 299.2855 652.7563)" class="st6" cx="538.5" cy="148.1" rx="39.7" ry="39.7"/>
<path class="st6" d="M569.1,143.5c0,0,16.8,50.3,29,53.4s-47.3,25.9-47.3,25.9s-18.3-42.7-27.5-53.4S569.1,143.5,569.1,143.5z"/>
<path class="st8" d="M664.4,437.9c32.9-5.3,14.7-69.5-0.7-99.8c1.4,1.1,2.6,2.3,3.7,3.7c15.3,19.8,45.8,105.2,7.6,111.3
	s-106.8,29-106.8,29l-2.1-18.1C585.8,457.7,634.5,442.6,664.4,437.9z"/>
<path class="st5" d="M717,700.2c0,0,38.1,30.5,35.1,33.6s-35.1,51.9-62.5,56.4s-39.7,4.6-39.7,0s7.6-15.3,21.4-19.8
	s15.3-35.1,13.7-41.2S717,700.2,717,700.2z"/>
<path class="st5" d="M602.6,472.9L627,587.3c0,0,100.7,112.9,97.6,114.4s-33.6,32-39.7,32s-111.3-119-111.3-119l-38.1-99.1
	L602.6,472.9z"/>
<path class="st8" d="M602.6,472.9L627,587.3c0,0,100.7,112.9,97.6,114.4s-33.6,32-39.7,32s-111.3-119-111.3-119l-38.1-99.1
	L602.6,472.9z"/>
<path class="st5" d="M627,436.3c0,0-12.2,51.9-45.8,86.9S532.4,630,532.4,630l-33.6,143.4c0,0-59.5-7.6-56.4-22.9l32-126.6
	c0,0,36.6-175.4,56.4-187.6S627,436.3,627,436.3z"/>
<path class="st5" d="M495.8,761.2c0,0,9.2,29,3.1,32s-114.4,9.2-120.5-12.2c0,0-3.1-10.7,21.4-10.7c24.4,0,50.3-22.9,50.3-22.9
	L495.8,761.2z"/>
<path class="st9" d="M541.6,216.7c0,0,39.7-39.7,50.3-36.6s10.7,18.3,10.7,18.3s33.6,4.6,30.5,114.4s27.5,122,16.8,128.1
	s-132.7,33.6-137.3,6.1s-3.1-132.7,9.2-166.2S549.2,225.9,541.6,216.7z"/>
<path class="st9" d="M591.9,225.9c0,0,45.8,21.4,19.8,62.5s-45.8,85.4-73.2,83.9s-70.2-27.5-82.4-27.5s4.6-44.2,13.7-45.8
	s51.9,24.4,51.9,24.4S537,219.8,591.9,225.9z"/>
<path class="st5" d="M561.4,152.4c-3.4-0.2-6.7,0.9-10,1.4c-12,1.6-24.5-7.1-27.2-19c-0.2-1.6-0.7-3.1-1.4-4.5
	c-1.8-3-6.1-3.6-9.5-2.9s-6.8,2.3-10.3,2.5c-5.5,0.3-10.7-3.1-13.6-7.7s-3.7-10.3-3.3-15.8l2.6,2.7c1.1-2.3,1.5-4.8,1.2-7.2
	c2.8-0.8,5.8,0,7.9,2c2.3,0.2,0.6-4.3,2.3-5.8c0.7-0.7,1.8-0.5,2.8-0.5c4.9,0,8.9-3.7,12.8-6.7c6.7-5.2,14.5-8.8,22.9-10.4
	c5.5-1.1,11.4-1.3,16.7,0.8c4.3,1.7,7.9,4.8,11.3,8c8.2,7.9,15.5,17.2,18.9,28.1c2.8,8.9,2.9,18.5,0.2,27.4
	c-1.4,4.7-5.5,20.6-11.6,21C566.4,166.3,570.9,153,561.4,152.4z"/>
</svg>
